<svg width="100" height="100" viewBox="0 0 100 100" xmlns="http://www.w3.org/2000/svg">
  <defs>
    <style>
      .icon-bg { fill: #0f1117; }
      .icon-border { fill: #818cf8; }
      .icon-doc { fill: #e2e4ed; }
    </style>
  </defs>
  <rect class="icon-bg" width="100" height="100" rx="20"/>
  <g transform="translate(15, 20)">
    <!-- Left document -->
    <rect class="icon-border" x="0" y="0" width="28" height="45" rx="2" fill="#4ade80" opacity="0.8"/>
    <rect class="icon-doc" x="2" y="2" width="24" height="6" rx="1"/>
    <rect class="icon-doc" x="2" y="10" width="24" height="4" rx="1" opacity="0.6"/>
    <rect class="icon-doc" x="2" y="16" width="24" height="4" rx="1" opacity="0.6"/>
    <rect class="icon-doc" x="2" y="22" width="15" height="4" rx="1" opacity="0.6"/>
  </g>
  <g transform="translate(50, 20)">
    <!-- Right document -->
    <rect class="icon-border" x="0" y="0" width="28" height="45" rx="2" fill="#f87171" opacity="0.8"/>
    <rect class="icon-doc" x="2" y="2" width="24" height="6" rx="1"/>
    <rect class="icon-doc" x="2" y="10" width="24" height="4" rx="1" opacity="0.6"/>
    <rect class="icon-doc" x="2" y="16" width="12" height="4" rx="1" opacity="0.6"/>
    <rect class="icon-doc" x="2" y="22" width="24" height="4" rx="1" opacity="0.6"/>
    <rect class="icon-doc" x="2" y="28" width="18" height="4" rx="1" opacity="0.6"/>
  </g>
  <!-- Compare arrow -->
  <g transform="translate(37, 42)">
    <path d="M 0 3 L 3 0 L 3 6 Z" fill="#818cf8"/>
    <path d="M 6 0 L 6 6" stroke="#818cf8" stroke-width="1" fill="none"/>
    <path d="M 12 3 L 9 6 L 9 0 Z" fill="#818cf8"/>
  </g>
</svg>
